{
    "asset" : {
        "generator" : "Khronos glTF Blender I/O v1.2.75",
        "version" : "2.0"
    },
    "scene" : 0,
    "scenes" : [
        {
            "name" : "Scene",
            "nodes" : [
                0,
                1,
                2,
                3,
                4,
                5,
                6
            ]
        }
    ],
    "nodes" : [
        {
            "name" : "Light.001",
            "rotation" : [
                -0.2888323962688446,
                0.335522323846817,
                -0.7299706339836121,
                0.5207144618034363
            ],
            "translation" : [
                4.076245307922363,
                1.2623295783996582,
                -5.2957377433776855
            ]
        },
        {
            "name" : "Camera.001",
            "rotation" : [
                0.483536034822464,
                0.33687159419059753,
                -0.20870360732078552,
                0.7804827094078064
            ],
            "translation" : [
                7.358891487121582,
                4.958309173583984,
                6.925790786743164
            ]
        },
        {
            "name" : "Light.002",
            "rotation" : [
                0.16907575726509094,
                0.7558803558349609,
                -0.27217137813568115,
                0.570947527885437
            ],
            "translation" : [
                4.076245307922363,
                5.903861999511719,
                -1.0054539442062378
            ]
        },
        {
            "name" : "Camera.002",
            "rotation" : [
                0.483536034822464,
                0.33687159419059753,
                -0.20870360732078552,
                0.7804827094078064
            ],
            "translation" : [
                7.358891487121582,
                4.958309173583984,
                6.925790786743164
            ]
        },
        {
            "mesh" : 0,
            "name" : "body_bus",
            "rotation" : [
                0,
                0.9999999403953552,
                0,
                1
            ],
            "scale" : [
                1.9639695882797241,
                1.9639695882797241,
                1.9639695882797241
            ],
            "translation" : [
                0,
                4.4676008224487305,
                0
            ]
        },
        {
            "name" : "Light",
            "rotation" : [
                0.16907575726509094,
                0.7558803558349609,
                -0.27217137813568115,
                0.570947527885437
            ],
            "translation" : [
                4.076245307922363,
                5.903861999511719,
                -1.0054539442062378
            ]
        },
        {
            "name" : "Camera",
            "rotation" : [
                0.483536034822464,
                0.33687159419059753,
                -0.20870360732078552,
                0.7804827094078064
            ],
            "translation" : [
                7.358891487121582,
                4.958309173583984,
                6.925790786743164
            ]
        }
    ],
    "materials" : [
        {
            "doubleSided" : true,
            "emissiveFactor" : [
                0,
                0,
                0
            ],
            "name" : "col_master_bus",
            "pbrMetallicRoughness" : {
                "baseColorFactor" : [
                    0.800000011920929,
                    0.800000011920929,
                    0.800000011920929,
                    1
                ],
                "metallicFactor" : 0,
                "roughnessFactor" : 0.690034806728363
            }
        },
        {
            "doubleSided" : true,
            "emissiveFactor" : [
                0,
                0,
                0
            ],
            "name" : "col_1",
            "pbrMetallicRoughness" : {
                "baseColorFactor" : [
                    0.019382359459996223,
                    0.022173885256052017,
                    0.01599629409611225,
                    1
                ],
                "metallicFactor" : 0,
                "roughnessFactor" : 0.690034806728363
            }
        },
        {
            "doubleSided" : true,
            "emissiveFactor" : [
                0,
                0,
                0
            ],
            "name" : "col_2",
            "pbrMetallicRoughness" : {
                "baseColorFactor" : [
                    0,
                    0,
                    0,
                    1
                ],
                "metallicFactor" : 0,
                "roughnessFactor" : 0.690034806728363
            }
        },
        {
            "doubleSided" : true,
            "emissiveFactor" : [
                0,
                0,
                0
            ],
            "name" : "col_3",
            "pbrMetallicRoughness" : {
                "baseColorFactor" : [
                    0.799102783203125,
                    0.005181516520678997,
                    0,
                    1
                ],
                "metallicFactor" : 0,
                "roughnessFactor" : 0.690034806728363
            }
        },
        {
            "doubleSided" : true,
            "emissiveFactor" : [
                0,
                0,
                0
            ],
            "name" : "col_4",
            "pbrMetallicRoughness" : {
                "baseColorFactor" : [
                    0.002063432242721319,
                    0.002063432242721319,
                    0.002063432242721319,
                    1
                ],
                "metallicFactor" : 0,
                "roughnessFactor" : 0.690034806728363
            }
        },
        {
            "doubleSided" : true,
            "emissiveFactor" : [
                0,
                0,
                0
            ],
            "name" : "col_5",
            "pbrMetallicRoughness" : {
                "baseColorFactor" : [
                    0.014669192023575306,
                    0.014669192023575306,
                    0.014669192023575306,
                    1
                ],
                "metallicFactor" : 0,
                "roughnessFactor" : 0.690034806728363
            }
        }
    ],
    "meshes" : [
        {
            "name" : "Cube.001",
            "primitives" : [
                {
                    "attributes" : {
                        "POSITION" : 0,
                        "NORMAL" : 1,
                        "TEXCOORD_0" : 2
                    },
                    "indices" : 3,
                    "material" : 0
                },
                {
                    "attributes" : {
                        "POSITION" : 4,
                        "NORMAL" : 5,
                        "TEXCOORD_0" : 6
                    },
                    "indices" : 7,
                    "material" : 1
                },
                {
                    "attributes" : {
                        "POSITION" : 8,
                        "NORMAL" : 9,
                        "TEXCOORD_0" : 10
                    },
                    "indices" : 11,
                    "material" : 2
                },
                {
                    "attributes" : {
                        "POSITION" : 12,
                        "NORMAL" : 13,
                        "TEXCOORD_0" : 14
                    },
                    "indices" : 15,
                    "material" : 3
                },
                {
                    "attributes" : {
                        "POSITION" : 16,
                        "NORMAL" : 17,
                        "TEXCOORD_0" : 18
                    },
                    "indices" : 19,
                    "material" : 4
                },
                {
                    "attributes" : {
                        "POSITION" : 20,
                        "NORMAL" : 21,
                        "TEXCOORD_0" : 22
                    },
                    "indices" : 23,
                    "material" : 5
                }
            ]
        }
    ],
    "accessors" : [
        {
            "bufferView" : 0,
            "componentType" : 5126,
            "count" : 6890,
            "max" : [
                1.7398449182510376,
                2.6470086574554443,
                8.476238250732422
            ],
            "min" : [
                -1.7398449182510376,
                -1.8943326473236084,
                -7.291630744934082
            ],
            "type" : "VEC3"
        },
        {
            "bufferView" : 1,
            "componentType" : 5126,
            "count" : 6890,
            "type" : "VEC3"
        },
        {
            "bufferView" : 2,
            "componentType" : 5126,
            "count" : 6890,
            "type" : "VEC2"
        },
        {
            "bufferView" : 3,
            "componentType" : 5123,
            "count" : 10056,
            "type" : "SCALAR"
        },
        {
            "bufferView" : 4,
            "componentType" : 5126,
            "count" : 68,
            "max" : [
                1.540712833404541,
                -0.5050011277198792,
                8.44517707824707
            ],
            "min" : [
                -1.540712833404541,
                -1.0048056840896606,
                7.683199405670166
            ],
            "type" : "VEC3"
        },
        {
            "bufferView" : 5,
            "componentType" : 5126,
            "count" : 68,
            "type" : "VEC3"
        },
        {
            "bufferView" : 6,
            "componentType" : 5126,
            "count" : 68,
            "type" : "VEC2"
        },
        {
            "bufferView" : 7,
            "componentType" : 5123,
            "count" : 138,
            "type" : "SCALAR"
        },
        {
            "bufferView" : 8,
            "componentType" : 5126,
            "count" : 2472,
            "max" : [
                1.8304262161254883,
                2.00974178314209,
                8.579900741577148
            ],
            "min" : [
                -1.8304262161254883,
                -1.7550623416900635,
                -7.291630744934082
            ],
            "type" : "VEC3"
        },
        {
            "bufferView" : 9,
            "componentType" : 5126,
            "count" : 2472,
            "type" : "VEC3"
        },
        {
            "bufferView" : 10,
            "componentType" : 5126,
            "count" : 2472,
            "type" : "VEC2"
        },
        {
            "bufferView" : 11,
            "componentType" : 5123,
            "count" : 3726,
            "type" : "SCALAR"
        },
        {
            "bufferView" : 12,
            "componentType" : 5126,
            "count" : 2217,
            "max" : [
                1.8304262161254883,
                2.00974178314209,
                8.644272804260254
            ],
            "min" : [
                -1.8304262161254883,
                -1.7550623416900635,
                -7.3075947761535645
            ],
            "type" : "VEC3"
        },
        {
            "bufferView" : 13,
            "componentType" : 5126,
            "count" : 2217,
            "type" : "VEC3"
        },
        {
            "bufferView" : 14,
            "componentType" : 5126,
            "count" : 2217,
            "type" : "VEC2"
        },
        {
            "bufferView" : 15,
            "componentType" : 5123,
            "count" : 4950,
            "type" : "SCALAR"
        },
        {
            "bufferView" : 16,
            "componentType" : 5126,
            "count" : 322,
            "max" : [
                1.5407127141952515,
                2.00974178314209,
                8.430726051330566
            ],
            "min" : [
                -1.5407127141952515,
                -1.3629567623138428,
                -7.291630744934082
            ],
            "type" : "VEC3"
        },
        {
            "bufferView" : 17,
            "componentType" : 5126,
            "count" : 322,
            "type" : "VEC3"
        },
        {
            "bufferView" : 18,
            "componentType" : 5126,
            "count" : 322,
            "type" : "VEC2"
        },
        {
            "bufferView" : 19,
            "componentType" : 5123,
            "count" : 444,
            "type" : "SCALAR"
        },
        {
            "bufferView" : 20,
            "componentType" : 5126,
            "count" : 1390,
            "max" : [
                1.5259933471679688,
                -0.7467238306999207,
                5.767703533172607
            ],
            "min" : [
                -1.5259933471679688,
                -2.227156162261963,
                -3.282336950302124
            ],
            "type" : "VEC3"
        },
        {
            "bufferView" : 21,
            "componentType" : 5126,
            "count" : 1390,
            "type" : "VEC3"
        },
        {
            "bufferView" : 22,
            "componentType" : 5126,
            "count" : 1390,
            "type" : "VEC2"
        },
        {
            "bufferView" : 23,
            "componentType" : 5123,
            "count" : 3492,
            "type" : "SCALAR"
        }
    ],
    "bufferViews" : [
        {
            "buffer" : 0,
            "byteLength" : 82680,
            "byteOffset" : 0
        },
        {
            "buffer" : 0,
            "byteLength" : 82680,
            "byteOffset" : 82680
        },
        {
            "buffer" : 0,
            "byteLength" : 55120,
            "byteOffset" : 165360
        },
        {
            "buffer" : 0,
            "byteLength" : 20112,
            "byteOffset" : 220480
        },
        {
            "buffer" : 0,
            "byteLength" : 816,
            "byteOffset" : 240592
        },
        {
            "buffer" : 0,
            "byteLength" : 816,
            "byteOffset" : 241408
        },
        {
            "buffer" : 0,
            "byteLength" : 544,
            "byteOffset" : 242224
        },
        {
            "buffer" : 0,
            "byteLength" : 276,
            "byteOffset" : 242768
        },
        {
            "buffer" : 0,
            "byteLength" : 29664,
            "byteOffset" : 243044
        },
        {
            "buffer" : 0,
            "byteLength" : 29664,
            "byteOffset" : 272708
        },
        {
            "buffer" : 0,
            "byteLength" : 19776,
            "byteOffset" : 302372
        },
        {
            "buffer" : 0,
            "byteLength" : 7452,
            "byteOffset" : 322148
        },
        {
            "buffer" : 0,
            "byteLength" : 26604,
            "byteOffset" : 329600
        },
        {
            "buffer" : 0,
            "byteLength" : 26604,
            "byteOffset" : 356204
        },
        {
            "buffer" : 0,
            "byteLength" : 17736,
            "byteOffset" : 382808
        },
        {
            "buffer" : 0,
            "byteLength" : 9900,
            "byteOffset" : 400544
        },
        {
            "buffer" : 0,
            "byteLength" : 3864,
            "byteOffset" : 410444
        },
        {
            "buffer" : 0,
            "byteLength" : 3864,
            "byteOffset" : 414308
        },
        {
            "buffer" : 0,
            "byteLength" : 2576,
            "byteOffset" : 418172
        },
        {
            "buffer" : 0,
            "byteLength" : 888,
            "byteOffset" : 420748
        },
        {
            "buffer" : 0,
            "byteLength" : 16680,
            "byteOffset" : 421636
        },
        {
            "buffer" : 0,
            "byteLength" : 16680,
            "byteOffset" : 438316
        },
        {
            "buffer" : 0,
            "byteLength" : 11120,
            "byteOffset" : 454996
        },
        {
            "buffer" : 0,
            "byteLength" : 6984,
            "byteOffset" : 466116
        }
    ],
    "buffers" : [
        {
            "byteLength" : 473100,
            "uri" : "workwork.bin"
        }
    ]
}
