{
    "asset" : {
        "generator" : "Khronos glTF Blender I/O v1.2.75",
        "version" : "2.0"
    },
    "scene" : 0,
    "scenes" : [
        {
            "name" : "Scene",
            "nodes" : [
                0,
                1,
                2,
                3,
                4
            ]
        }
    ],
    "nodes" : [
        {
            "mesh" : 0,
            "name" : "Cube",
            "rotation" : [
                -0.7133991718292236,
                0,
                0,
                0.7007578611373901
            ],
            "scale" : [
                0.0010000000474974513,
                1,
                1
            ],
            "translation" : [
                0,
                7.1948089599609375,
                0.5895347595214844
            ]
        },
        {
            "name" : "Camera.001",
            "rotation" : [
                0.483536034822464,
                0.33687159419059753,
                -0.20870360732078552,
                0.7804827094078064
            ],
            "translation" : [
                7.358891487121582,
                4.958309173583984,
                6.925790786743164
            ]
        },
        {
            "mesh" : 1,
            "name" : "Cylinder",
            "scale" : [
                0.20000000298023224,
                3.440000057220459,
                0.20000000298023224
            ],
            "translation" : [
                -0.20999985933303833,
                3.343557834625244,
                0.633183479309082
            ]
        },
        {
            "mesh" : 2,
            "name" : "Cube.001",
            "rotation" : [
                -0.7133991718292236,
                0,
                0,
                0.7007578611373901
            ],
            "scale" : [
                0.050000011920928955,
                1,
                1
            ],
            "translation" : [
                -0.049999892711639404,
                7.243165016174316,
                0.5892065763473511
            ]
        },
        {
            "name" : "Camera",
            "rotation" : [
                0.483536034822464,
                0.33687159419059753,
                -0.20870360732078552,
                0.7804827094078064
            ],
            "translation" : [
                7.358891487121582,
                4.958309173583984,
                6.925790786743164
            ]
        }
    ],
    "materials" : [
        {
            "doubleSided" : true,
            "emissiveFactor" : [
                0,
                0,
                0
            ],
            "name" : "Material.001",
            "pbrMetallicRoughness" : {
                "baseColorTexture" : {
                    "index" : 0,
                    "texCoord" : 0
                },
                "metallicFactor" : 0,
                "roughnessFactor" : 0.4000000059604645
            }
        }
    ],
    "meshes" : [
        {
            "name" : "Cube.001",
            "primitives" : [
                {
                    "attributes" : {
                        "POSITION" : 0,
                        "NORMAL" : 1,
                        "TEXCOORD_0" : 2
                    },
                    "indices" : 3,
                    "material" : 0
                }
            ]
        },
        {
            "name" : "Cylinder",
            "primitives" : [
                {
                    "attributes" : {
                        "POSITION" : 4,
                        "NORMAL" : 5,
                        "TEXCOORD_0" : 6
                    },
                    "indices" : 7
                }
            ]
        },
        {
            "name" : "Cube.002",
            "primitives" : [
                {
                    "attributes" : {
                        "POSITION" : 8,
                        "NORMAL" : 9,
                        "TEXCOORD_0" : 10
                    },
                    "indices" : 11
                }
            ]
        }
    ],
    "textures" : [
        {
            "source" : 0
        }
    ],
    "images" : [
        {
            "mimeType" : "image/png",
            "name" : "transferir",
            "uri" : "transferir.png"
        }
    ],
    "accessors" : [
        {
            "bufferView" : 0,
            "componentType" : 5126,
            "count" : 28,
            "max" : [
                1.653050422668457,
                1.0098532438278198,
                1.0098532438278198
            ],
            "min" : [
                -8.815784454345703,
                -1,
                -0.975718080997467
            ],
            "type" : "VEC3"
        },
        {
            "bufferView" : 1,
            "componentType" : 5126,
            "count" : 28,
            "type" : "VEC3"
        },
        {
            "bufferView" : 2,
            "componentType" : 5126,
            "count" : 28,
            "type" : "VEC2"
        },
        {
            "bufferView" : 3,
            "componentType" : 5123,
            "count" : 36,
            "type" : "SCALAR"
        },
        {
            "bufferView" : 4,
            "componentType" : 5126,
            "count" : 244,
            "max" : [
                1,
                1,
                1
            ],
            "min" : [
                -1,
                -1,
                -1
            ],
            "type" : "VEC3"
        },
        {
            "bufferView" : 5,
            "componentType" : 5126,
            "count" : 244,
            "type" : "VEC3"
        },
        {
            "bufferView" : 6,
            "componentType" : 5126,
            "count" : 244,
            "type" : "VEC2"
        },
        {
            "bufferView" : 7,
            "componentType" : 5123,
            "count" : 372,
            "type" : "SCALAR"
        },
        {
            "bufferView" : 8,
            "componentType" : 5126,
            "count" : 24,
            "max" : [
                1,
                1,
                1
            ],
            "min" : [
                -1,
                -1,
                -1
            ],
            "type" : "VEC3"
        },
        {
            "bufferView" : 9,
            "componentType" : 5126,
            "count" : 24,
            "type" : "VEC3"
        },
        {
            "bufferView" : 10,
            "componentType" : 5126,
            "count" : 24,
            "type" : "VEC2"
        },
        {
            "bufferView" : 11,
            "componentType" : 5123,
            "count" : 36,
            "type" : "SCALAR"
        }
    ],
    "bufferViews" : [
        {
            "buffer" : 0,
            "byteLength" : 336,
            "byteOffset" : 0
        },
        {
            "buffer" : 0,
            "byteLength" : 336,
            "byteOffset" : 336
        },
        {
            "buffer" : 0,
            "byteLength" : 224,
            "byteOffset" : 672
        },
        {
            "buffer" : 0,
            "byteLength" : 72,
            "byteOffset" : 896
        },
        {
            "buffer" : 0,
            "byteLength" : 2928,
            "byteOffset" : 968
        },
        {
            "buffer" : 0,
            "byteLength" : 2928,
            "byteOffset" : 3896
        },
        {
            "buffer" : 0,
            "byteLength" : 1952,
            "byteOffset" : 6824
        },
        {
            "buffer" : 0,
            "byteLength" : 744,
            "byteOffset" : 8776
        },
        {
            "buffer" : 0,
            "byteLength" : 288,
            "byteOffset" : 9520
        },
        {
            "buffer" : 0,
            "byteLength" : 288,
            "byteOffset" : 9808
        },
        {
            "buffer" : 0,
            "byteLength" : 192,
            "byteOffset" : 10096
        },
        {
            "buffer" : 0,
            "byteLength" : 72,
            "byteOffset" : 10288
        }
    ],
    "buffers" : [
        {
            "byteLength" : 10360,
            "uri" : "bussign1.bin"
        }
    ]
}
