{
    "asset" : {
        "generator" : "Khronos glTF Blender I/O v1.2.75",
        "version" : "2.0"
    },
    "scene" : 0,
    "scenes" : [
        {
            "name" : "Scene",
            "nodes" : [
                0,
                1,
                2,
                3,
                4,
                5,
                6
            ]
        }
    ],
    "nodes" : [
        {
            "mesh" : 0,
            "name" : "Cube",
            "rotation" : [
                -0.7133991718292236,
                0,
                0,
                0.7007578611373901
            ],
            "scale" : [
                0.0008160272845998406,
                0.8160272240638733,
                0.8160272240638733
            ],
            "translation" : [
                -0.01594429463148117,
                5.89478063583374,
                0.5921913385391235
            ]
        },
        {
            "name" : "Camera.001",
            "rotation" : [
                0.483536034822464,
                0.33687159419059753,
                -0.20870360732078552,
                0.7804827094078064
            ],
            "translation" : [
                7.358891487121582,
                4.958309173583984,
                6.925790786743164
            ]
        },
        {
            "mesh" : 1,
            "name" : "Cylinder",
            "scale" : [
                0.16320544481277466,
                2.807133674621582,
                0.16320544481277466
            ],
            "translation" : [
                -0.1873098909854889,
                2.7520546913146973,
                0.6278098821640015
            ]
        },
        {
            "mesh" : 2,
            "name" : "Cube.001",
            "rotation" : [
                -0.7133991718292236,
                0,
                0,
                0.7007578611373901
            ],
            "scale" : [
                0.04080137237906456,
                0.8160272240638733,
                0.8160272240638733
            ],
            "translation" : [
                -0.05674556642770767,
                5.934240341186523,
                0.5919235348701477
            ]
        },
        {
            "name" : "Camera.002",
            "rotation" : [
                0.483536034822464,
                0.33687159419059753,
                -0.20870360732078552,
                0.7804827094078064
            ],
            "translation" : [
                7.358891487121582,
                4.958309173583984,
                6.925790786743164
            ]
        },
        {
            "mesh" : 3,
            "name" : "body_bus",
            "scale" : [
                1.9639695882797241,
                1.9639695882797241,
                1.9639695882797241
            ],
            "translation" : [
                12.479999542236328,
                4.4676008224487305,
                0
            ]
        },
        {
            "name" : "Camera",
            "rotation" : [
                0.483536034822464,
                0.33687159419059753,
                -0.20870360732078552,
                0.7804827094078064
            ],
            "translation" : [
                7.358891487121582,
                4.958309173583984,
                6.925790786743164
            ]
        }
    ],
    "materials" : [
        {
            "doubleSided" : true,
            "emissiveFactor" : [
                0,
                0,
                0
            ],
            "name" : "Material.001",
            "pbrMetallicRoughness" : {
                "baseColorTexture" : {
                    "index" : 0,
                    "texCoord" : 0
                },
                "metallicFactor" : 0,
                "roughnessFactor" : 0.4000000059604645
            }
        },
        {
            "doubleSided" : true,
            "emissiveFactor" : [
                0,
                0,
                0
            ],
            "name" : "col_master_bus",
            "pbrMetallicRoughness" : {
                "baseColorFactor" : [
                    0.800000011920929,
                    0.800000011920929,
                    0.800000011920929,
                    1
                ],
                "metallicFactor" : 0,
                "roughnessFactor" : 0.690034806728363
            }
        },
        {
            "doubleSided" : true,
            "emissiveFactor" : [
                0,
                0,
                0
            ],
            "name" : "col_1",
            "pbrMetallicRoughness" : {
                "baseColorFactor" : [
                    0.019382359459996223,
                    0.022173885256052017,
                    0.01599629409611225,
                    1
                ],
                "metallicFactor" : 0,
                "roughnessFactor" : 0.690034806728363
            }
        },
        {
            "doubleSided" : true,
            "emissiveFactor" : [
                0,
                0,
                0
            ],
            "name" : "col_2",
            "pbrMetallicRoughness" : {
                "baseColorFactor" : [
                    0,
                    0,
                    0,
                    1
                ],
                "metallicFactor" : 0,
                "roughnessFactor" : 0.690034806728363
            }
        },
        {
            "doubleSided" : true,
            "emissiveFactor" : [
                0,
                0,
                0
            ],
            "name" : "col_3",
            "pbrMetallicRoughness" : {
                "baseColorFactor" : [
                    0.799102783203125,
                    0.005181516520678997,
                    0,
                    1
                ],
                "metallicFactor" : 0,
                "roughnessFactor" : 0.690034806728363
            }
        },
        {
            "doubleSided" : true,
            "emissiveFactor" : [
                0,
                0,
                0
            ],
            "name" : "col_4",
            "pbrMetallicRoughness" : {
                "baseColorFactor" : [
                    0.002063432242721319,
                    0.002063432242721319,
                    0.002063432242721319,
                    1
                ],
                "metallicFactor" : 0,
                "roughnessFactor" : 0.690034806728363
            }
        },
        {
            "doubleSided" : true,
            "emissiveFactor" : [
                0,
                0,
                0
            ],
            "name" : "col_5",
            "pbrMetallicRoughness" : {
                "baseColorFactor" : [
                    0.014669192023575306,
                    0.014669192023575306,
                    0.014669192023575306,
                    1
                ],
                "metallicFactor" : 0,
                "roughnessFactor" : 0.690034806728363
            }
        }
    ],
    "meshes" : [
        {
            "name" : "Cube.002",
            "primitives" : [
                {
                    "attributes" : {
                        "POSITION" : 0,
                        "NORMAL" : 1,
                        "TEXCOORD_0" : 2
                    },
                    "indices" : 3,
                    "material" : 0
                }
            ]
        },
        {
            "name" : "Cylinder",
            "primitives" : [
                {
                    "attributes" : {
                        "POSITION" : 4,
                        "NORMAL" : 5,
                        "TEXCOORD_0" : 6
                    },
                    "indices" : 7
                }
            ]
        },
        {
            "name" : "Cube.003",
            "primitives" : [
                {
                    "attributes" : {
                        "POSITION" : 8,
                        "NORMAL" : 9,
                        "TEXCOORD_0" : 10
                    },
                    "indices" : 11
                }
            ]
        },
        {
            "name" : "Cube.001",
            "primitives" : [
                {
                    "attributes" : {
                        "POSITION" : 12,
                        "NORMAL" : 13,
                        "TEXCOORD_0" : 14
                    },
                    "indices" : 15,
                    "material" : 1
                },
                {
                    "attributes" : {
                        "POSITION" : 16,
                        "NORMAL" : 17,
                        "TEXCOORD_0" : 18
                    },
                    "indices" : 19,
                    "material" : 2
                },
                {
                    "attributes" : {
                        "POSITION" : 20,
                        "NORMAL" : 21,
                        "TEXCOORD_0" : 22
                    },
                    "indices" : 23,
                    "material" : 3
                },
                {
                    "attributes" : {
                        "POSITION" : 24,
                        "NORMAL" : 25,
                        "TEXCOORD_0" : 26
                    },
                    "indices" : 27,
                    "material" : 4
                },
                {
                    "attributes" : {
                        "POSITION" : 28,
                        "NORMAL" : 29,
                        "TEXCOORD_0" : 30
                    },
                    "indices" : 31,
                    "material" : 5
                },
                {
                    "attributes" : {
                        "POSITION" : 32,
                        "NORMAL" : 33,
                        "TEXCOORD_0" : 34
                    },
                    "indices" : 35,
                    "material" : 6
                }
            ]
        }
    ],
    "textures" : [
        {
            "source" : 0
        }
    ],
    "images" : [
        {
            "bufferView" : 4,
            "mimeType" : "image/png",
            "name" : "transferir"
        }
    ],
    "accessors" : [
        {
            "bufferView" : 0,
            "componentType" : 5126,
            "count" : 28,
            "max" : [
                1.653050422668457,
                1.0098532438278198,
                1.0098532438278198
            ],
            "min" : [
                -8.815784454345703,
                -1,
                -0.975718080997467
            ],
            "type" : "VEC3"
        },
        {
            "bufferView" : 1,
            "componentType" : 5126,
            "count" : 28,
            "type" : "VEC3"
        },
        {
            "bufferView" : 2,
            "componentType" : 5126,
            "count" : 28,
            "type" : "VEC2"
        },
        {
            "bufferView" : 3,
            "componentType" : 5123,
            "count" : 36,
            "type" : "SCALAR"
        },
        {
            "bufferView" : 5,
            "componentType" : 5126,
            "count" : 244,
            "max" : [
                1,
                1,
                1
            ],
            "min" : [
                -1,
                -1,
                -1
            ],
            "type" : "VEC3"
        },
        {
            "bufferView" : 6,
            "componentType" : 5126,
            "count" : 244,
            "type" : "VEC3"
        },
        {
            "bufferView" : 7,
            "componentType" : 5126,
            "count" : 244,
            "type" : "VEC2"
        },
        {
            "bufferView" : 8,
            "componentType" : 5123,
            "count" : 372,
            "type" : "SCALAR"
        },
        {
            "bufferView" : 9,
            "componentType" : 5126,
            "count" : 24,
            "max" : [
                1,
                1,
                1
            ],
            "min" : [
                -1,
                -1,
                -1
            ],
            "type" : "VEC3"
        },
        {
            "bufferView" : 10,
            "componentType" : 5126,
            "count" : 24,
            "type" : "VEC3"
        },
        {
            "bufferView" : 11,
            "componentType" : 5126,
            "count" : 24,
            "type" : "VEC2"
        },
        {
            "bufferView" : 12,
            "componentType" : 5123,
            "count" : 36,
            "type" : "SCALAR"
        },
        {
            "bufferView" : 13,
            "componentType" : 5126,
            "count" : 6890,
            "max" : [
                1.7398449182510376,
                2.6470086574554443,
                8.476238250732422
            ],
            "min" : [
                -1.7398449182510376,
                -1.8943326473236084,
                -7.291630744934082
            ],
            "type" : "VEC3"
        },
        {
            "bufferView" : 14,
            "componentType" : 5126,
            "count" : 6890,
            "type" : "VEC3"
        },
        {
            "bufferView" : 15,
            "componentType" : 5126,
            "count" : 6890,
            "type" : "VEC2"
        },
        {
            "bufferView" : 16,
            "componentType" : 5123,
            "count" : 10056,
            "type" : "SCALAR"
        },
        {
            "bufferView" : 17,
            "componentType" : 5126,
            "count" : 68,
            "max" : [
                1.540712833404541,
                -0.5050011277198792,
                8.44517707824707
            ],
            "min" : [
                -1.540712833404541,
                -1.0048056840896606,
                7.683199405670166
            ],
            "type" : "VEC3"
        },
        {
            "bufferView" : 18,
            "componentType" : 5126,
            "count" : 68,
            "type" : "VEC3"
        },
        {
            "bufferView" : 19,
            "componentType" : 5126,
            "count" : 68,
            "type" : "VEC2"
        },
        {
            "bufferView" : 20,
            "componentType" : 5123,
            "count" : 138,
            "type" : "SCALAR"
        },
        {
            "bufferView" : 21,
            "componentType" : 5126,
            "count" : 2472,
            "max" : [
                1.8304262161254883,
                2.00974178314209,
                8.579900741577148
            ],
            "min" : [
                -1.8304262161254883,
                -1.7550623416900635,
                -7.291630744934082
            ],
            "type" : "VEC3"
        },
        {
            "bufferView" : 22,
            "componentType" : 5126,
            "count" : 2472,
            "type" : "VEC3"
        },
        {
            "bufferView" : 23,
            "componentType" : 5126,
            "count" : 2472,
            "type" : "VEC2"
        },
        {
            "bufferView" : 24,
            "componentType" : 5123,
            "count" : 3726,
            "type" : "SCALAR"
        },
        {
            "bufferView" : 25,
            "componentType" : 5126,
            "count" : 2217,
            "max" : [
                1.8304262161254883,
                2.00974178314209,
                8.644272804260254
            ],
            "min" : [
                -1.8304262161254883,
                -1.7550623416900635,
                -7.3075947761535645
            ],
            "type" : "VEC3"
        },
        {
            "bufferView" : 26,
            "componentType" : 5126,
            "count" : 2217,
            "type" : "VEC3"
        },
        {
            "bufferView" : 27,
            "componentType" : 5126,
            "count" : 2217,
            "type" : "VEC2"
        },
        {
            "bufferView" : 28,
            "componentType" : 5123,
            "count" : 4950,
            "type" : "SCALAR"
        },
        {
            "bufferView" : 29,
            "componentType" : 5126,
            "count" : 322,
            "max" : [
                1.5407127141952515,
                2.00974178314209,
                8.430726051330566
            ],
            "min" : [
                -1.5407127141952515,
                -1.3629567623138428,
                -7.291630744934082
            ],
            "type" : "VEC3"
        },
        {
            "bufferView" : 30,
            "componentType" : 5126,
            "count" : 322,
            "type" : "VEC3"
        },
        {
            "bufferView" : 31,
            "componentType" : 5126,
            "count" : 322,
            "type" : "VEC2"
        },
        {
            "bufferView" : 32,
            "componentType" : 5123,
            "count" : 444,
            "type" : "SCALAR"
        },
        {
            "bufferView" : 33,
            "componentType" : 5126,
            "count" : 1390,
            "max" : [
                1.5259933471679688,
                -0.7467238306999207,
                5.767703533172607
            ],
            "min" : [
                -1.5259933471679688,
                -2.227156162261963,
                -3.282336950302124
            ],
            "type" : "VEC3"
        },
        {
            "bufferView" : 34,
            "componentType" : 5126,
            "count" : 1390,
            "type" : "VEC3"
        },
        {
            "bufferView" : 35,
            "componentType" : 5126,
            "count" : 1390,
            "type" : "VEC2"
        },
        {
            "bufferView" : 36,
            "componentType" : 5123,
            "count" : 3492,
            "type" : "SCALAR"
        }
    ],
    "bufferViews" : [
        {
            "buffer" : 0,
            "byteLength" : 336,
            "byteOffset" : 0
        },
        {
            "buffer" : 0,
            "byteLength" : 336,
            "byteOffset" : 336
        },
        {
            "buffer" : 0,
            "byteLength" : 224,
            "byteOffset" : 672
        },
        {
            "buffer" : 0,
            "byteLength" : 72,
            "byteOffset" : 896
        },
        {
            "buffer" : 0,
            "byteLength" : 3427,
            "byteOffset" : 968
        },
        {
            "buffer" : 0,
            "byteLength" : 2928,
            "byteOffset" : 4396
        },
        {
            "buffer" : 0,
            "byteLength" : 2928,
            "byteOffset" : 7324
        },
        {
            "buffer" : 0,
            "byteLength" : 1952,
            "byteOffset" : 10252
        },
        {
            "buffer" : 0,
            "byteLength" : 744,
            "byteOffset" : 12204
        },
        {
            "buffer" : 0,
            "byteLength" : 288,
            "byteOffset" : 12948
        },
        {
            "buffer" : 0,
            "byteLength" : 288,
            "byteOffset" : 13236
        },
        {
            "buffer" : 0,
            "byteLength" : 192,
            "byteOffset" : 13524
        },
        {
            "buffer" : 0,
            "byteLength" : 72,
            "byteOffset" : 13716
        },
        {
            "buffer" : 0,
            "byteLength" : 82680,
            "byteOffset" : 13788
        },
        {
            "buffer" : 0,
            "byteLength" : 82680,
            "byteOffset" : 96468
        },
        {
            "buffer" : 0,
            "byteLength" : 55120,
            "byteOffset" : 179148
        },
        {
            "buffer" : 0,
            "byteLength" : 20112,
            "byteOffset" : 234268
        },
        {
            "buffer" : 0,
            "byteLength" : 816,
            "byteOffset" : 254380
        },
        {
            "buffer" : 0,
            "byteLength" : 816,
            "byteOffset" : 255196
        },
        {
            "buffer" : 0,
            "byteLength" : 544,
            "byteOffset" : 256012
        },
        {
            "buffer" : 0,
            "byteLength" : 276,
            "byteOffset" : 256556
        },
        {
            "buffer" : 0,
            "byteLength" : 29664,
            "byteOffset" : 256832
        },
        {
            "buffer" : 0,
            "byteLength" : 29664,
            "byteOffset" : 286496
        },
        {
            "buffer" : 0,
            "byteLength" : 19776,
            "byteOffset" : 316160
        },
        {
            "buffer" : 0,
            "byteLength" : 7452,
            "byteOffset" : 335936
        },
        {
            "buffer" : 0,
            "byteLength" : 26604,
            "byteOffset" : 343388
        },
        {
            "buffer" : 0,
            "byteLength" : 26604,
            "byteOffset" : 369992
        },
        {
            "buffer" : 0,
            "byteLength" : 17736,
            "byteOffset" : 396596
        },
        {
            "buffer" : 0,
            "byteLength" : 9900,
            "byteOffset" : 414332
        },
        {
            "buffer" : 0,
            "byteLength" : 3864,
            "byteOffset" : 424232
        },
        {
            "buffer" : 0,
            "byteLength" : 3864,
            "byteOffset" : 428096
        },
        {
            "buffer" : 0,
            "byteLength" : 2576,
            "byteOffset" : 431960
        },
        {
            "buffer" : 0,
            "byteLength" : 888,
            "byteOffset" : 434536
        },
        {
            "buffer" : 0,
            "byteLength" : 16680,
            "byteOffset" : 435424
        },
        {
            "buffer" : 0,
            "byteLength" : 16680,
            "byteOffset" : 452104
        },
        {
            "buffer" : 0,
            "byteLength" : 11120,
            "byteOffset" : 468784
        },
        {
            "buffer" : 0,
            "byteLength" : 6984,
            "byteOffset" : 479904
        }
    ],
    "buffers" : [
        {
            "byteLength" : 486888,
            "uri" : "data:application/octet-stream;base64,"
        }
    ]
}
