{
    "asset" : {
        "generator" : "Khronos glTF Blender I/O v1.2.75",
        "version" : "2.0"
    },
    "scene" : 0,
    "scenes" : [
        {
            "name" : "Scene",
            "nodes" : [
                0,
                1,
                2,
                3,
                4
            ]
        }
    ],
    "nodes" : [
        {
            "name" : "Camera.001",
            "rotation" : [
                0.483536034822464,
                0.33687159419059753,
                -0.20870360732078552,
                0.7804827094078064
            ],
            "translation" : [
                7.358891487121582,
                4.958309173583984,
                6.925790786743164
            ]
        },
        {
            "name" : "Camera.002",
            "rotation" : [
                0.483536034822464,
                0.3368716239929199,
                -0.20870371162891388,
                0.7804826498031616
            ],
            "translation" : [
                7.358891487121582,
                4.958309173583984,
                6.925790786743164
            ]
        },
        {
            "mesh" : 0,
            "name" : "Cube.002",
            "scale" : [
                0.11000001430511475,
                1,
                1
            ],
            "translation" : [
                6,
                0.8799999952316284,
                0
            ]
        },
        {
            "mesh" : 1,
            "name" : "body_bus",
            "rotation" : [
                0,
                0.7071067690849304,
                0,
                0.7071067690849304
            ],
            "translation" : [
                2.259999990463257,
                2.2376010417938232,
                7.669999599456787
            ]
        },
        {
            "name" : "Camera",
            "rotation" : [
                0.483536034822464,
                0.33687159419059753,
                -0.20870360732078552,
                0.7804827094078064
            ],
            "translation" : [
                7.358891487121582,
                4.958309173583984,
                6.925790786743164
            ]
        }
    ],
    "materials" : [
        {
            "doubleSided" : true,
            "emissiveFactor" : [
                0,
                0,
                0
            ],
            "name" : "Material.001",
            "pbrMetallicRoughness" : {
                "baseColorFactor" : [
                    0.03665993735194206,
                    0.06061388924717903,
                    0.8000000715255737,
                    1
                ],
                "metallicFactor" : 0,
                "roughnessFactor" : 0.4000000059604645
            }
        },
        {
            "doubleSided" : true,
            "emissiveFactor" : [
                0,
                0,
                0
            ],
            "name" : "Material.002",
            "pbrMetallicRoughness" : {
                "baseColorFactor" : [
                    0.800000011920929,
                    0.800000011920929,
                    0.800000011920929,
                    1
                ],
                "metallicFactor" : 0,
                "roughnessFactor" : 0.4000000059604645
            }
        },
        {
            "doubleSided" : true,
            "emissiveFactor" : [
                0,
                0,
                0
            ],
            "name" : "col_master_bus",
            "pbrMetallicRoughness" : {
                "baseColorFactor" : [
                    0.800000011920929,
                    0.800000011920929,
                    0.800000011920929,
                    1
                ],
                "metallicFactor" : 0,
                "roughnessFactor" : 0.690034806728363
            }
        },
        {
            "doubleSided" : true,
            "emissiveFactor" : [
                0,
                0,
                0
            ],
            "name" : "col_1",
            "pbrMetallicRoughness" : {
                "baseColorFactor" : [
                    0.019382359459996223,
                    0.022173885256052017,
                    0.01599629409611225,
                    1
                ],
                "metallicFactor" : 0,
                "roughnessFactor" : 0.690034806728363
            }
        },
        {
            "doubleSided" : true,
            "emissiveFactor" : [
                0,
                0,
                0
            ],
            "name" : "col_2",
            "pbrMetallicRoughness" : {
                "baseColorFactor" : [
                    0,
                    0,
                    0,
                    1
                ],
                "metallicFactor" : 0,
                "roughnessFactor" : 0.690034806728363
            }
        },
        {
            "doubleSided" : true,
            "emissiveFactor" : [
                0,
                0,
                0
            ],
            "name" : "col_3",
            "pbrMetallicRoughness" : {
                "baseColorFactor" : [
                    0.799102783203125,
                    0.005181516520678997,
                    0,
                    1
                ],
                "metallicFactor" : 0,
                "roughnessFactor" : 0.690034806728363
            }
        },
        {
            "doubleSided" : true,
            "emissiveFactor" : [
                0,
                0,
                0
            ],
            "name" : "col_4",
            "pbrMetallicRoughness" : {
                "baseColorFactor" : [
                    0.002063432242721319,
                    0.002063432242721319,
                    0.002063432242721319,
                    1
                ],
                "metallicFactor" : 0,
                "roughnessFactor" : 0.690034806728363
            }
        },
        {
            "doubleSided" : true,
            "emissiveFactor" : [
                0,
                0,
                0
            ],
            "name" : "col_5",
            "pbrMetallicRoughness" : {
                "baseColorFactor" : [
                    0.014669192023575306,
                    0.014669192023575306,
                    0.014669192023575306,
                    1
                ],
                "metallicFactor" : 0,
                "roughnessFactor" : 0.690034806728363
            }
        }
    ],
    "meshes" : [
        {
            "name" : "Cube.002",
            "primitives" : [
                {
                    "attributes" : {
                        "POSITION" : 0,
                        "NORMAL" : 1,
                        "TEXCOORD_0" : 2
                    },
                    "indices" : 3,
                    "material" : 0
                },
                {
                    "attributes" : {
                        "POSITION" : 4,
                        "NORMAL" : 5,
                        "TEXCOORD_0" : 6
                    },
                    "indices" : 7,
                    "material" : 1
                }
            ]
        },
        {
            "name" : "Cube.006",
            "primitives" : [
                {
                    "attributes" : {
                        "POSITION" : 8,
                        "NORMAL" : 9,
                        "TEXCOORD_0" : 10
                    },
                    "indices" : 11,
                    "material" : 2
                },
                {
                    "attributes" : {
                        "POSITION" : 12,
                        "NORMAL" : 13,
                        "TEXCOORD_0" : 14
                    },
                    "indices" : 15,
                    "material" : 3
                },
                {
                    "attributes" : {
                        "POSITION" : 16,
                        "NORMAL" : 17,
                        "TEXCOORD_0" : 18
                    },
                    "indices" : 19,
                    "material" : 4
                },
                {
                    "attributes" : {
                        "POSITION" : 20,
                        "NORMAL" : 21,
                        "TEXCOORD_0" : 22
                    },
                    "indices" : 23,
                    "material" : 5
                },
                {
                    "attributes" : {
                        "POSITION" : 24,
                        "NORMAL" : 25,
                        "TEXCOORD_0" : 26
                    },
                    "indices" : 27,
                    "material" : 6
                },
                {
                    "attributes" : {
                        "POSITION" : 28,
                        "NORMAL" : 29,
                        "TEXCOORD_0" : 30
                    },
                    "indices" : 31,
                    "material" : 7
                }
            ]
        }
    ],
    "accessors" : [
        {
            "bufferView" : 0,
            "componentType" : 5126,
            "count" : 120,
            "max" : [
                1,
                1.5000011920928955,
                1.0000007152557373
            ],
            "min" : [
                -55.727272033691406,
                -1,
                -1.000000238418579
            ],
            "type" : "VEC3"
        },
        {
            "bufferView" : 1,
            "componentType" : 5126,
            "count" : 120,
            "type" : "VEC3"
        },
        {
            "bufferView" : 2,
            "componentType" : 5126,
            "count" : 120,
            "type" : "VEC2"
        },
        {
            "bufferView" : 3,
            "componentType" : 5123,
            "count" : 144,
            "type" : "SCALAR"
        },
        {
            "bufferView" : 4,
            "componentType" : 5126,
            "count" : 32,
            "max" : [
                0.8062953948974609,
                0.9999687671661377,
                -0.45396843552589417
            ],
            "min" : [
                -55.011878967285156,
                -1.0000321865081787,
                -0.9939690828323364
            ],
            "type" : "VEC3"
        },
        {
            "bufferView" : 5,
            "componentType" : 5126,
            "count" : 32,
            "type" : "VEC3"
        },
        {
            "bufferView" : 6,
            "componentType" : 5126,
            "count" : 32,
            "type" : "VEC2"
        },
        {
            "bufferView" : 7,
            "componentType" : 5123,
            "count" : 36,
            "type" : "SCALAR"
        },
        {
            "bufferView" : 8,
            "componentType" : 5126,
            "count" : 6890,
            "max" : [
                1.7398449182510376,
                2.6470086574554443,
                8.476238250732422
            ],
            "min" : [
                -1.7398449182510376,
                -1.8943326473236084,
                -7.291630744934082
            ],
            "type" : "VEC3"
        },
        {
            "bufferView" : 9,
            "componentType" : 5126,
            "count" : 6890,
            "type" : "VEC3"
        },
        {
            "bufferView" : 10,
            "componentType" : 5126,
            "count" : 6890,
            "type" : "VEC2"
        },
        {
            "bufferView" : 11,
            "componentType" : 5123,
            "count" : 10056,
            "type" : "SCALAR"
        },
        {
            "bufferView" : 12,
            "componentType" : 5126,
            "count" : 68,
            "max" : [
                1.540712833404541,
                -0.5050011277198792,
                8.44517707824707
            ],
            "min" : [
                -1.540712833404541,
                -1.0048056840896606,
                7.683199405670166
            ],
            "type" : "VEC3"
        },
        {
            "bufferView" : 13,
            "componentType" : 5126,
            "count" : 68,
            "type" : "VEC3"
        },
        {
            "bufferView" : 14,
            "componentType" : 5126,
            "count" : 68,
            "type" : "VEC2"
        },
        {
            "bufferView" : 15,
            "componentType" : 5123,
            "count" : 138,
            "type" : "SCALAR"
        },
        {
            "bufferView" : 16,
            "componentType" : 5126,
            "count" : 2472,
            "max" : [
                1.8304262161254883,
                2.00974178314209,
                8.579900741577148
            ],
            "min" : [
                -1.8304262161254883,
                -1.7550623416900635,
                -7.291630744934082
            ],
            "type" : "VEC3"
        },
        {
            "bufferView" : 17,
            "componentType" : 5126,
            "count" : 2472,
            "type" : "VEC3"
        },
        {
            "bufferView" : 18,
            "componentType" : 5126,
            "count" : 2472,
            "type" : "VEC2"
        },
        {
            "bufferView" : 19,
            "componentType" : 5123,
            "count" : 3726,
            "type" : "SCALAR"
        },
        {
            "bufferView" : 20,
            "componentType" : 5126,
            "count" : 2217,
            "max" : [
                1.8304262161254883,
                2.00974178314209,
                8.644272804260254
            ],
            "min" : [
                -1.8304262161254883,
                -1.7550623416900635,
                -7.3075947761535645
            ],
            "type" : "VEC3"
        },
        {
            "bufferView" : 21,
            "componentType" : 5126,
            "count" : 2217,
            "type" : "VEC3"
        },
        {
            "bufferView" : 22,
            "componentType" : 5126,
            "count" : 2217,
            "type" : "VEC2"
        },
        {
            "bufferView" : 23,
            "componentType" : 5123,
            "count" : 4950,
            "type" : "SCALAR"
        },
        {
            "bufferView" : 24,
            "componentType" : 5126,
            "count" : 322,
            "max" : [
                1.5407127141952515,
                2.00974178314209,
                8.430726051330566
            ],
            "min" : [
                -1.5407127141952515,
                -1.3629567623138428,
                -7.291630744934082
            ],
            "type" : "VEC3"
        },
        {
            "bufferView" : 25,
            "componentType" : 5126,
            "count" : 322,
            "type" : "VEC3"
        },
        {
            "bufferView" : 26,
            "componentType" : 5126,
            "count" : 322,
            "type" : "VEC2"
        },
        {
            "bufferView" : 27,
            "componentType" : 5123,
            "count" : 444,
            "type" : "SCALAR"
        },
        {
            "bufferView" : 28,
            "componentType" : 5126,
            "count" : 1390,
            "max" : [
                1.5259933471679688,
                -0.7467238306999207,
                5.767703533172607
            ],
            "min" : [
                -1.5259933471679688,
                -2.227156162261963,
                -3.282336950302124
            ],
            "type" : "VEC3"
        },
        {
            "bufferView" : 29,
            "componentType" : 5126,
            "count" : 1390,
            "type" : "VEC3"
        },
        {
            "bufferView" : 30,
            "componentType" : 5126,
            "count" : 1390,
            "type" : "VEC2"
        },
        {
            "bufferView" : 31,
            "componentType" : 5123,
            "count" : 3492,
            "type" : "SCALAR"
        }
    ],
    "bufferViews" : [
        {
            "buffer" : 0,
            "byteLength" : 1440,
            "byteOffset" : 0
        },
        {
            "buffer" : 0,
            "byteLength" : 1440,
            "byteOffset" : 1440
        },
        {
            "buffer" : 0,
            "byteLength" : 960,
            "byteOffset" : 2880
        },
        {
            "buffer" : 0,
            "byteLength" : 288,
            "byteOffset" : 3840
        },
        {
            "buffer" : 0,
            "byteLength" : 384,
            "byteOffset" : 4128
        },
        {
            "buffer" : 0,
            "byteLength" : 384,
            "byteOffset" : 4512
        },
        {
            "buffer" : 0,
            "byteLength" : 256,
            "byteOffset" : 4896
        },
        {
            "buffer" : 0,
            "byteLength" : 72,
            "byteOffset" : 5152
        },
        {
            "buffer" : 0,
            "byteLength" : 82680,
            "byteOffset" : 5224
        },
        {
            "buffer" : 0,
            "byteLength" : 82680,
            "byteOffset" : 87904
        },
        {
            "buffer" : 0,
            "byteLength" : 55120,
            "byteOffset" : 170584
        },
        {
            "buffer" : 0,
            "byteLength" : 20112,
            "byteOffset" : 225704
        },
        {
            "buffer" : 0,
            "byteLength" : 816,
            "byteOffset" : 245816
        },
        {
            "buffer" : 0,
            "byteLength" : 816,
            "byteOffset" : 246632
        },
        {
            "buffer" : 0,
            "byteLength" : 544,
            "byteOffset" : 247448
        },
        {
            "buffer" : 0,
            "byteLength" : 276,
            "byteOffset" : 247992
        },
        {
            "buffer" : 0,
            "byteLength" : 29664,
            "byteOffset" : 248268
        },
        {
            "buffer" : 0,
            "byteLength" : 29664,
            "byteOffset" : 277932
        },
        {
            "buffer" : 0,
            "byteLength" : 19776,
            "byteOffset" : 307596
        },
        {
            "buffer" : 0,
            "byteLength" : 7452,
            "byteOffset" : 327372
        },
        {
            "buffer" : 0,
            "byteLength" : 26604,
            "byteOffset" : 334824
        },
        {
            "buffer" : 0,
            "byteLength" : 26604,
            "byteOffset" : 361428
        },
        {
            "buffer" : 0,
            "byteLength" : 17736,
            "byteOffset" : 388032
        },
        {
            "buffer" : 0,
            "byteLength" : 9900,
            "byteOffset" : 405768
        },
        {
            "buffer" : 0,
            "byteLength" : 3864,
            "byteOffset" : 415668
        },
        {
            "buffer" : 0,
            "byteLength" : 3864,
            "byteOffset" : 419532
        },
        {
            "buffer" : 0,
            "byteLength" : 2576,
            "byteOffset" : 423396
        },
        {
            "buffer" : 0,
            "byteLength" : 888,
            "byteOffset" : 425972
        },
        {
            "buffer" : 0,
            "byteLength" : 16680,
            "byteOffset" : 426860
        },
        {
            "buffer" : 0,
            "byteLength" : 16680,
            "byteOffset" : 443540
        },
        {
            "buffer" : 0,
            "byteLength" : 11120,
            "byteOffset" : 460220
        },
        {
            "buffer" : 0,
            "byteLength" : 6984,
            "byteOffset" : 471340
        }
    ],
    "buffers" : [
        {
            "byteLength" : 478324,
            "uri" : "BusModel1.bin"
        }
    ]
}
